<mxfile host="www.draw.io" modified="2019-12-20T07:33:47.527Z" agent="Mozilla/5.0 (Macintosh; Intel Mac OS X 10.15; rv:71.0) Gecko/20100101 Firefox/71.0" etag="a6HIscCIP-zsZEWE0v49" version="12.4.3" type="github" pages="4">
  <diagram id="D73_LH9-GQgMu1KFHfky" name="Customer">
    <mxGraphModel dx="946" dy="574" grid="0" gridSize="10" guides="1" tooltips="1" connect="1" arrows="1" fold="1" page="1" pageScale="1" pageWidth="1100" pageHeight="850" background="#8095B3" math="0" shadow="0">
      <root>
        <mxCell id="0"/>
        <mxCell id="1" parent="0"/>
        <mxCell id="62M7FDR766jdcNvWjQak-1" value="Customer" style="strokeWidth=2;html=1;shape=mxgraph.flowchart.start_2;whiteSpace=wrap;labelPosition=left;verticalLabelPosition=middle;align=right;verticalAlign=middle;fillColor=#3399FF;fontStyle=1;fontSize=18;fontColor=#FFD966;" parent="1" vertex="1">
          <mxGeometry x="428" y="249" width="20" height="20" as="geometry"/>
        </mxCell>
        <mxCell id="62M7FDR766jdcNvWjQak-2" value="" style="endArrow=none;html=1;labelPosition=center;verticalLabelPosition=bottom;align=center;verticalAlign=top;entryX=0.5;entryY=1;entryDx=0;entryDy=0;entryPerimeter=0;" parent="1" source="62M7FDR766jdcNvWjQak-5" target="62M7FDR766jdcNvWjQak-1" edge="1">
          <mxGeometry width="50" height="50" relative="1" as="geometry">
            <mxPoint x="370" y="320" as="sourcePoint"/>
            <mxPoint x="390" y="250" as="targetPoint"/>
          </mxGeometry>
        </mxCell>
        <mxCell id="62M7FDR766jdcNvWjQak-5" value="Customer Attributes" style="text;html=1;strokeColor=none;fillColor=none;align=center;verticalAlign=middle;whiteSpace=wrap;rounded=0;fontSize=16;fontColor=#FFFFFF;" parent="1" vertex="1">
          <mxGeometry x="327" y="330" width="150" height="20" as="geometry"/>
        </mxCell>
        <mxCell id="62M7FDR766jdcNvWjQak-12" value="" style="endArrow=none;html=1;entryX=0.25;entryY=1;entryDx=0;entryDy=0;exitX=0.5;exitY=0;exitDx=0;exitDy=0;fontSize=16;fontColor=#FFFFFF;" parent="1" source="62M7FDR766jdcNvWjQak-15" target="62M7FDR766jdcNvWjQak-5" edge="1">
          <mxGeometry width="50" height="50" relative="1" as="geometry">
            <mxPoint x="285" y="370" as="sourcePoint"/>
            <mxPoint x="320" y="430" as="targetPoint"/>
          </mxGeometry>
        </mxCell>
        <mxCell id="62M7FDR766jdcNvWjQak-13" value="" style="endArrow=none;html=1;entryX=0.5;entryY=1;entryDx=0;entryDy=0;exitX=0.5;exitY=0;exitDx=0;exitDy=0;fontSize=16;fontColor=#FFFFFF;" parent="1" source="62M7FDR766jdcNvWjQak-16" target="62M7FDR766jdcNvWjQak-5" edge="1">
          <mxGeometry width="50" height="50" relative="1" as="geometry">
            <mxPoint x="550" y="410" as="sourcePoint"/>
            <mxPoint x="370" y="360" as="targetPoint"/>
          </mxGeometry>
        </mxCell>
        <mxCell id="62M7FDR766jdcNvWjQak-15" value="Household and Personal" style="text;html=1;strokeColor=none;fillColor=none;align=center;verticalAlign=middle;whiteSpace=wrap;rounded=0;fontSize=16;fontColor=#FFFFFF;" parent="1" vertex="1">
          <mxGeometry x="161" y="420" width="149" height="40" as="geometry"/>
        </mxCell>
        <mxCell id="62M7FDR766jdcNvWjQak-16" value="Behavioral" style="text;html=1;strokeColor=none;fillColor=none;align=center;verticalAlign=middle;whiteSpace=wrap;rounded=0;fontSize=16;fontColor=#FFFFFF;" parent="1" vertex="1">
          <mxGeometry x="390" y="430" width="90" height="40" as="geometry"/>
        </mxCell>
        <mxCell id="62M7FDR766jdcNvWjQak-17" value="Financial" style="text;html=1;strokeColor=none;fillColor=none;align=center;verticalAlign=middle;whiteSpace=wrap;rounded=0;fontSize=16;fontColor=#FFFFFF;" parent="1" vertex="1">
          <mxGeometry x="490" y="420" width="90" height="30" as="geometry"/>
        </mxCell>
        <mxCell id="62M7FDR766jdcNvWjQak-18" value="" style="endArrow=none;html=1;entryX=0.7;entryY=1.05;entryDx=0;entryDy=0;entryPerimeter=0;exitX=0.5;exitY=0;exitDx=0;exitDy=0;fontSize=16;fontColor=#FFFFFF;" parent="1" source="62M7FDR766jdcNvWjQak-17" target="62M7FDR766jdcNvWjQak-5" edge="1">
          <mxGeometry width="50" height="50" relative="1" as="geometry">
            <mxPoint x="445" y="440" as="sourcePoint"/>
            <mxPoint x="415" y="360" as="targetPoint"/>
          </mxGeometry>
        </mxCell>
        <mxCell id="62M7FDR766jdcNvWjQak-19" value="Employment" style="text;html=1;strokeColor=none;fillColor=none;align=center;verticalAlign=middle;whiteSpace=wrap;rounded=0;fontSize=16;fontColor=#FFFFFF;" parent="1" vertex="1">
          <mxGeometry x="310" y="470" width="90" height="40" as="geometry"/>
        </mxCell>
        <mxCell id="62M7FDR766jdcNvWjQak-20" value="" style="endArrow=none;html=1;entryX=0.327;entryY=1.1;entryDx=0;entryDy=0;entryPerimeter=0;fontSize=16;fontColor=#FFFFFF;" parent="1" source="62M7FDR766jdcNvWjQak-19" target="62M7FDR766jdcNvWjQak-5" edge="1">
          <mxGeometry width="50" height="50" relative="1" as="geometry">
            <mxPoint x="445" y="440" as="sourcePoint"/>
            <mxPoint x="415" y="360" as="targetPoint"/>
          </mxGeometry>
        </mxCell>
        <mxCell id="62M7FDR766jdcNvWjQak-22" value="Interests and hobbies" style="text;html=1;strokeColor=none;fillColor=none;align=center;verticalAlign=middle;whiteSpace=wrap;rounded=0;fontSize=16;fontColor=#FFFFFF;" parent="1" vertex="1">
          <mxGeometry x="550" y="350" width="119" height="30" as="geometry"/>
        </mxCell>
        <mxCell id="62M7FDR766jdcNvWjQak-23" value="" style="endArrow=none;html=1;exitX=0;exitY=0.5;exitDx=0;exitDy=0;fontSize=16;fontColor=#FFFFFF;" parent="1" source="62M7FDR766jdcNvWjQak-22" target="62M7FDR766jdcNvWjQak-5" edge="1">
          <mxGeometry width="50" height="50" relative="1" as="geometry">
            <mxPoint x="545" y="430" as="sourcePoint"/>
            <mxPoint x="450" y="340" as="targetPoint"/>
          </mxGeometry>
        </mxCell>
        <mxCell id="62M7FDR766jdcNvWjQak-24" value="Information Group" style="text;html=1;strokeColor=none;fillColor=none;align=center;verticalAlign=middle;whiteSpace=wrap;rounded=0;fontSize=16;fontColor=#FFFFFF;" parent="1" vertex="1">
          <mxGeometry x="410" y="175" width="145" height="43" as="geometry"/>
        </mxCell>
        <mxCell id="62M7FDR766jdcNvWjQak-25" value="" style="endArrow=none;html=1;exitX=0.855;exitY=0.145;exitDx=0;exitDy=0;entryX=0.5;entryY=1;entryDx=0;entryDy=0;exitPerimeter=0;fontColor=#FFFFFF;" parent="1" source="62M7FDR766jdcNvWjQak-1" target="62M7FDR766jdcNvWjQak-24" edge="1">
          <mxGeometry width="50" height="50" relative="1" as="geometry">
            <mxPoint x="560" y="375" as="sourcePoint"/>
            <mxPoint x="470" y="359.48275862068965" as="targetPoint"/>
          </mxGeometry>
        </mxCell>
        <mxCell id="62M7FDR766jdcNvWjQak-26" value="Current Customer snapshot" style="text;html=1;strokeColor=none;fillColor=none;align=center;verticalAlign=middle;whiteSpace=wrap;rounded=0;fontSize=16;fontColor=#FFFFFF;" parent="1" vertex="1">
          <mxGeometry x="238" y="141" width="144" height="29" as="geometry"/>
        </mxCell>
        <mxCell id="62M7FDR766jdcNvWjQak-27" value="" style="endArrow=none;html=1;entryX=0.75;entryY=1;entryDx=0;entryDy=0;fontSize=16;fontColor=#FFFFFF;" parent="1" source="62M7FDR766jdcNvWjQak-24" target="62M7FDR766jdcNvWjQak-26" edge="1">
          <mxGeometry width="50" height="50" relative="1" as="geometry">
            <mxPoint x="420" y="290" as="sourcePoint"/>
            <mxPoint x="475" y="230" as="targetPoint"/>
          </mxGeometry>
        </mxCell>
        <mxCell id="62M7FDR766jdcNvWjQak-28" value="Intitial Customer Information" style="text;html=1;strokeColor=none;fillColor=none;align=center;verticalAlign=middle;whiteSpace=wrap;rounded=0;fontSize=16;fontColor=#FFFFFF;" parent="1" vertex="1">
          <mxGeometry x="331" y="66" width="145" height="36" as="geometry"/>
        </mxCell>
        <mxCell id="62M7FDR766jdcNvWjQak-29" value="" style="endArrow=none;html=1;exitX=0.5;exitY=0;exitDx=0;exitDy=0;fontSize=16;fontColor=#FFFFFF;" parent="1" source="62M7FDR766jdcNvWjQak-24" target="62M7FDR766jdcNvWjQak-28" edge="1">
          <mxGeometry width="50" height="50" relative="1" as="geometry">
            <mxPoint x="456.875" y="210" as="sourcePoint"/>
            <mxPoint x="402.5" y="180" as="targetPoint"/>
          </mxGeometry>
        </mxCell>
        <mxCell id="62M7FDR766jdcNvWjQak-30" value="Seff-Reported Information" style="text;html=1;strokeColor=none;fillColor=none;align=center;verticalAlign=middle;whiteSpace=wrap;rounded=0;fontSize=16;fontColor=#FFFFFF;" parent="1" vertex="1">
          <mxGeometry x="550" y="52" width="110" height="44" as="geometry"/>
        </mxCell>
        <mxCell id="62M7FDR766jdcNvWjQak-31" value="" style="endArrow=none;html=1;exitX=0.7;exitY=-0.15;exitDx=0;exitDy=0;entryX=0.25;entryY=1;entryDx=0;entryDy=0;exitPerimeter=0;fontSize=16;fontColor=#FFFFFF;" parent="1" source="62M7FDR766jdcNvWjQak-24" target="62M7FDR766jdcNvWjQak-30" edge="1">
          <mxGeometry width="50" height="50" relative="1" as="geometry">
            <mxPoint x="475" y="210" as="sourcePoint"/>
            <mxPoint x="449.2857142857142" y="120" as="targetPoint"/>
          </mxGeometry>
        </mxCell>
        <mxCell id="62M7FDR766jdcNvWjQak-32" value="External Data" style="text;html=1;strokeColor=none;fillColor=none;align=center;verticalAlign=middle;whiteSpace=wrap;rounded=0;labelPosition=center;verticalLabelPosition=middle;fontSize=16;fontColor=#FFFFFF;" parent="1" vertex="1">
          <mxGeometry x="605" y="200" width="118" height="30" as="geometry"/>
        </mxCell>
        <mxCell id="62M7FDR766jdcNvWjQak-33" value="" style="endArrow=none;html=1;exitX=1;exitY=0.5;exitDx=0;exitDy=0;fontSize=16;fontColor=#FFFFFF;" parent="1" source="62M7FDR766jdcNvWjQak-24" target="62M7FDR766jdcNvWjQak-32" edge="1">
          <mxGeometry width="50" height="50" relative="1" as="geometry">
            <mxPoint x="497" y="207" as="sourcePoint"/>
            <mxPoint x="537.5" y="140" as="targetPoint"/>
          </mxGeometry>
        </mxCell>
        <mxCell id="62M7FDR766jdcNvWjQak-34" value="Transaction Summaries" style="text;html=1;strokeColor=none;fillColor=none;align=center;verticalAlign=middle;whiteSpace=wrap;rounded=0;fontSize=16;fontColor=#FFFFFF;" parent="1" vertex="1">
          <mxGeometry x="680" y="130" width="99" height="30" as="geometry"/>
        </mxCell>
        <mxCell id="62M7FDR766jdcNvWjQak-35" value="" style="endArrow=none;html=1;exitX=1;exitY=0.25;exitDx=0;exitDy=0;fontSize=16;fontColor=#FFFFFF;" parent="1" source="62M7FDR766jdcNvWjQak-24" target="62M7FDR766jdcNvWjQak-34" edge="1">
          <mxGeometry width="50" height="50" relative="1" as="geometry">
            <mxPoint x="530" y="220" as="sourcePoint"/>
            <mxPoint x="580" y="222.3809523809524" as="targetPoint"/>
          </mxGeometry>
        </mxCell>
      </root>
    </mxGraphModel>
  </diagram>
  <diagram name="Single Customer View" id="A0wOWmpeOEGPwZVPFjwO">
    <mxGraphModel dx="1186" dy="574" grid="0" gridSize="10" guides="1" tooltips="1" connect="1" arrows="1" fold="1" page="1" pageScale="1" pageWidth="1100" pageHeight="850" background="#8095B3" math="0" shadow="0">
      <root>
        <mxCell id="lkq6bt3DBxnfbiLlZNMB-0"/>
        <mxCell id="lkq6bt3DBxnfbiLlZNMB-1" parent="lkq6bt3DBxnfbiLlZNMB-0"/>
        <mxCell id="lkq6bt3DBxnfbiLlZNMB-2" value="&lt;div&gt;Single Customer View&lt;/div&gt;" style="strokeWidth=2;html=1;shape=mxgraph.flowchart.start_2;labelPosition=left;verticalLabelPosition=middle;align=right;verticalAlign=middle;fillColor=#3399FF;fontStyle=1;fontSize=18;fontColor=#FFD966;spacing=19;strokeColor=#473D1C;" parent="lkq6bt3DBxnfbiLlZNMB-1" vertex="1">
          <mxGeometry x="410" y="245" width="20" height="20" as="geometry"/>
        </mxCell>
        <mxCell id="lkq6bt3DBxnfbiLlZNMB-3" value="" style="endArrow=none;html=1;labelPosition=center;verticalLabelPosition=bottom;align=center;verticalAlign=top;entryX=0.5;entryY=1;entryDx=0;entryDy=0;entryPerimeter=0;" parent="lkq6bt3DBxnfbiLlZNMB-1" source="lkq6bt3DBxnfbiLlZNMB-4" target="lkq6bt3DBxnfbiLlZNMB-2" edge="1">
          <mxGeometry width="50" height="50" relative="1" as="geometry">
            <mxPoint x="370" y="320" as="sourcePoint"/>
            <mxPoint x="390" y="250" as="targetPoint"/>
          </mxGeometry>
        </mxCell>
        <mxCell id="lkq6bt3DBxnfbiLlZNMB-4" value="Customer Profile" style="text;html=1;strokeColor=none;fillColor=none;align=center;verticalAlign=middle;whiteSpace=wrap;rounded=0;fontSize=16;fontColor=#FFFFFF;" parent="lkq6bt3DBxnfbiLlZNMB-1" vertex="1">
          <mxGeometry x="326" y="367" width="150" height="20" as="geometry"/>
        </mxCell>
        <mxCell id="lkq6bt3DBxnfbiLlZNMB-15" value="Identification" style="text;html=1;strokeColor=none;fillColor=none;align=center;verticalAlign=middle;whiteSpace=wrap;rounded=0;fontSize=16;fontColor=#FFFFFF;" parent="lkq6bt3DBxnfbiLlZNMB-1" vertex="1">
          <mxGeometry x="242" y="57" width="145" height="43" as="geometry"/>
        </mxCell>
        <mxCell id="lkq6bt3DBxnfbiLlZNMB-16" value="" style="endArrow=none;html=1;exitX=0.145;exitY=0.145;exitDx=0;exitDy=0;entryX=0.5;entryY=1;entryDx=0;entryDy=0;exitPerimeter=0;fontColor=#FFFFFF;" parent="lkq6bt3DBxnfbiLlZNMB-1" source="lkq6bt3DBxnfbiLlZNMB-2" target="lkq6bt3DBxnfbiLlZNMB-15" edge="1">
          <mxGeometry width="50" height="50" relative="1" as="geometry">
            <mxPoint x="560" y="375" as="sourcePoint"/>
            <mxPoint x="470" y="359.48275862068965" as="targetPoint"/>
          </mxGeometry>
        </mxCell>
        <mxCell id="lkq6bt3DBxnfbiLlZNMB-17" value="Contact Info." style="text;html=1;strokeColor=none;fillColor=none;align=center;verticalAlign=middle;whiteSpace=wrap;rounded=0;fontSize=16;fontColor=#FFFFFF;" parent="lkq6bt3DBxnfbiLlZNMB-1" vertex="1">
          <mxGeometry x="160" y="325.5" width="114" height="29" as="geometry"/>
        </mxCell>
        <mxCell id="lkq6bt3DBxnfbiLlZNMB-18" value="" style="endArrow=none;html=1;fontSize=16;fontColor=#FFFFFF;exitX=0.145;exitY=0.855;exitDx=0;exitDy=0;exitPerimeter=0;entryX=1;entryY=0.25;entryDx=0;entryDy=0;" parent="lkq6bt3DBxnfbiLlZNMB-1" source="lkq6bt3DBxnfbiLlZNMB-2" target="lkq6bt3DBxnfbiLlZNMB-17" edge="1">
          <mxGeometry width="50" height="50" relative="1" as="geometry">
            <mxPoint x="410" y="242" as="sourcePoint"/>
            <mxPoint x="289" y="325" as="targetPoint"/>
          </mxGeometry>
        </mxCell>
        <mxCell id="lkq6bt3DBxnfbiLlZNMB-19" value="Product Holding" style="text;html=1;strokeColor=none;fillColor=none;align=center;verticalAlign=middle;whiteSpace=wrap;rounded=0;fontSize=16;fontColor=#FFFFFF;" parent="lkq6bt3DBxnfbiLlZNMB-1" vertex="1">
          <mxGeometry x="432" y="57" width="145" height="36" as="geometry"/>
        </mxCell>
        <mxCell id="lkq6bt3DBxnfbiLlZNMB-20" value="" style="endArrow=none;html=1;exitX=0.5;exitY=0;exitDx=0;exitDy=0;fontSize=16;fontColor=#FFFFFF;exitPerimeter=0;" parent="lkq6bt3DBxnfbiLlZNMB-1" source="lkq6bt3DBxnfbiLlZNMB-2" target="lkq6bt3DBxnfbiLlZNMB-19" edge="1">
          <mxGeometry width="50" height="50" relative="1" as="geometry">
            <mxPoint x="456.875" y="210" as="sourcePoint"/>
            <mxPoint x="402.5" y="180" as="targetPoint"/>
          </mxGeometry>
        </mxCell>
        <mxCell id="lkq6bt3DBxnfbiLlZNMB-21" value="Competitive Information" style="text;html=1;strokeColor=none;fillColor=none;align=center;verticalAlign=middle;whiteSpace=wrap;rounded=0;fontSize=16;fontColor=#FFFFFF;" parent="lkq6bt3DBxnfbiLlZNMB-1" vertex="1">
          <mxGeometry x="577" y="126" width="110" height="44" as="geometry"/>
        </mxCell>
        <mxCell id="lkq6bt3DBxnfbiLlZNMB-22" value="" style="endArrow=none;html=1;exitX=0.855;exitY=0.145;exitDx=0;exitDy=0;entryX=0.25;entryY=1;entryDx=0;entryDy=0;exitPerimeter=0;fontSize=16;fontColor=#FFFFFF;" parent="lkq6bt3DBxnfbiLlZNMB-1" source="lkq6bt3DBxnfbiLlZNMB-2" target="lkq6bt3DBxnfbiLlZNMB-21" edge="1">
          <mxGeometry width="50" height="50" relative="1" as="geometry">
            <mxPoint x="475" y="210" as="sourcePoint"/>
            <mxPoint x="449.2857142857142" y="120" as="targetPoint"/>
          </mxGeometry>
        </mxCell>
        <mxCell id="lkq6bt3DBxnfbiLlZNMB-23" value="Privacy Reference" style="text;html=1;strokeColor=none;fillColor=none;align=center;verticalAlign=middle;whiteSpace=wrap;rounded=0;labelPosition=center;verticalLabelPosition=middle;fontSize=16;fontColor=#FFFFFF;" parent="lkq6bt3DBxnfbiLlZNMB-1" vertex="1">
          <mxGeometry x="546" y="332" width="141" height="30" as="geometry"/>
        </mxCell>
        <mxCell id="lkq6bt3DBxnfbiLlZNMB-24" value="" style="endArrow=none;html=1;exitX=0.855;exitY=0.855;exitDx=0;exitDy=0;fontSize=16;fontColor=#FFFFFF;exitPerimeter=0;" parent="lkq6bt3DBxnfbiLlZNMB-1" source="lkq6bt3DBxnfbiLlZNMB-2" target="lkq6bt3DBxnfbiLlZNMB-23" edge="1">
          <mxGeometry width="50" height="50" relative="1" as="geometry">
            <mxPoint x="497" y="207" as="sourcePoint"/>
            <mxPoint x="537.5" y="140" as="targetPoint"/>
          </mxGeometry>
        </mxCell>
        <mxCell id="lkq6bt3DBxnfbiLlZNMB-25" value="Relationship Management" style="text;html=1;strokeColor=none;fillColor=none;align=center;verticalAlign=middle;whiteSpace=wrap;rounded=0;fontSize=16;fontColor=#FFFFFF;" parent="lkq6bt3DBxnfbiLlZNMB-1" vertex="1">
          <mxGeometry x="680" y="218" width="99" height="30" as="geometry"/>
        </mxCell>
        <mxCell id="lkq6bt3DBxnfbiLlZNMB-26" value="" style="endArrow=none;html=1;exitX=1;exitY=0.5;exitDx=0;exitDy=0;fontSize=16;fontColor=#FFFFFF;exitPerimeter=0;" parent="lkq6bt3DBxnfbiLlZNMB-1" source="lkq6bt3DBxnfbiLlZNMB-2" target="lkq6bt3DBxnfbiLlZNMB-25" edge="1">
          <mxGeometry width="50" height="50" relative="1" as="geometry">
            <mxPoint x="530" y="220" as="sourcePoint"/>
            <mxPoint x="580" y="222.3809523809524" as="targetPoint"/>
          </mxGeometry>
        </mxCell>
      </root>
    </mxGraphModel>
  </diagram>
  <diagram id="gECsFdBlIzcHcg-21xVU" name="DIH Architecture">
    <mxGraphModel dx="1186" dy="574" grid="1" gridSize="10" guides="1" tooltips="1" connect="1" arrows="1" fold="1" page="1" pageScale="1" pageWidth="1100" pageHeight="850" math="0" shadow="0">
      <root>
        <mxCell id="Sq8qz6Rjfc9JWC2CEWmz-0"/>
        <mxCell id="Sq8qz6Rjfc9JWC2CEWmz-1" parent="Sq8qz6Rjfc9JWC2CEWmz-0"/>
        <mxCell id="ZrL0aH-scqhHAdQ7SSmO-0" value="" style="rounded=1;whiteSpace=wrap;html=1;absoluteArcSize=1;arcSize=14;strokeWidth=1;fillColor=#66B2FF;" vertex="1" parent="Sq8qz6Rjfc9JWC2CEWmz-1">
          <mxGeometry x="330" y="125" width="260" height="220" as="geometry"/>
        </mxCell>
        <mxCell id="ZrL0aH-scqhHAdQ7SSmO-1" value="Data Integration Hub" style="text;html=1;resizable=0;autosize=1;align=center;verticalAlign=middle;points=[];fillColor=none;strokeColor=none;rounded=0;fontStyle=1" vertex="1" parent="Sq8qz6Rjfc9JWC2CEWmz-1">
          <mxGeometry x="400" y="135" width="130" height="20" as="geometry"/>
        </mxCell>
        <mxCell id="ZrL0aH-scqhHAdQ7SSmO-3" value="" style="rounded=1;whiteSpace=wrap;html=1;absoluteArcSize=1;arcSize=14;strokeWidth=1;fillColor=#fad7ac;strokeColor=#b46504;" vertex="1" parent="Sq8qz6Rjfc9JWC2CEWmz-1">
          <mxGeometry x="350" y="165" width="220" height="170" as="geometry"/>
        </mxCell>
        <mxCell id="ZrL0aH-scqhHAdQ7SSmO-4" value="&lt;div&gt;Raw&lt;/div&gt;&lt;div&gt;Source&lt;br&gt;Data&lt;br&gt;&lt;/div&gt;" style="rounded=1;whiteSpace=wrap;html=1;absoluteArcSize=1;arcSize=14;strokeWidth=2;fillColor=#FFB570;" vertex="1" parent="Sq8qz6Rjfc9JWC2CEWmz-1">
          <mxGeometry x="370" y="175" width="60" height="100" as="geometry"/>
        </mxCell>
        <mxCell id="ZrL0aH-scqhHAdQ7SSmO-5" value="Summary" style="rounded=1;whiteSpace=wrap;html=1;absoluteArcSize=1;arcSize=14;strokeWidth=2;fillColor=#FFB570;" vertex="1" parent="Sq8qz6Rjfc9JWC2CEWmz-1">
          <mxGeometry x="450" y="175" width="90" height="30" as="geometry"/>
        </mxCell>
        <mxCell id="ZrL0aH-scqhHAdQ7SSmO-6" value="Analysis" style="rounded=1;whiteSpace=wrap;html=1;absoluteArcSize=1;arcSize=14;strokeWidth=2;fillColor=#FFB570;" vertex="1" parent="Sq8qz6Rjfc9JWC2CEWmz-1">
          <mxGeometry x="450" y="215" width="90" height="30" as="geometry"/>
        </mxCell>
        <mxCell id="ZrL0aH-scqhHAdQ7SSmO-7" value="&lt;div&gt;Enriched/&lt;/div&gt;&lt;div&gt;Cleansed&lt;br&gt;&lt;/div&gt;" style="rounded=1;whiteSpace=wrap;html=1;absoluteArcSize=1;arcSize=14;strokeWidth=2;fillColor=#FFB570;" vertex="1" parent="Sq8qz6Rjfc9JWC2CEWmz-1">
          <mxGeometry x="450" y="255" width="90" height="30" as="geometry"/>
        </mxCell>
        <mxCell id="ZrL0aH-scqhHAdQ7SSmO-8" value="Reference Data" style="rounded=1;whiteSpace=wrap;html=1;absoluteArcSize=1;arcSize=14;strokeWidth=2;fillColor=#FFB570;" vertex="1" parent="Sq8qz6Rjfc9JWC2CEWmz-1">
          <mxGeometry x="370" y="295" width="170" height="30" as="geometry"/>
        </mxCell>
        <mxCell id="ZrL0aH-scqhHAdQ7SSmO-9" value="" style="rounded=1;whiteSpace=wrap;html=1;absoluteArcSize=1;arcSize=14;strokeWidth=1;fillColor=#66B2FF;" vertex="1" parent="Sq8qz6Rjfc9JWC2CEWmz-1">
          <mxGeometry x="650" y="125" width="160" height="220" as="geometry"/>
        </mxCell>
        <mxCell id="ZrL0aH-scqhHAdQ7SSmO-11" value="&lt;div&gt;Analytics and &lt;br&gt;&lt;/div&gt;&lt;div&gt;Decision Support&lt;/div&gt;" style="text;html=1;resizable=0;autosize=1;align=center;verticalAlign=middle;points=[];fillColor=none;strokeColor=none;rounded=0;fontStyle=1" vertex="1" parent="Sq8qz6Rjfc9JWC2CEWmz-1">
          <mxGeometry x="670" y="135" width="110" height="30" as="geometry"/>
        </mxCell>
        <mxCell id="ZrL0aH-scqhHAdQ7SSmO-12" value="&lt;div&gt;Consuming applications&lt;/div&gt;&lt;div&gt;(EDW/ODS etc.)&lt;br&gt;&lt;/div&gt;" style="rounded=1;whiteSpace=wrap;html=1;absoluteArcSize=1;arcSize=14;strokeWidth=1;fillColor=#b1ddf0;strokeColor=#10739e;" vertex="1" parent="Sq8qz6Rjfc9JWC2CEWmz-1">
          <mxGeometry x="670" y="175" width="120" height="60" as="geometry"/>
        </mxCell>
        <mxCell id="ZrL0aH-scqhHAdQ7SSmO-15" value="&lt;div&gt;Data Analysis,&lt;/div&gt;&lt;div&gt;Reporting&lt;br&gt;&lt;/div&gt;" style="rounded=1;whiteSpace=wrap;html=1;absoluteArcSize=1;arcSize=14;strokeWidth=1;fillColor=#b1ddf0;strokeColor=#10739e;" vertex="1" parent="Sq8qz6Rjfc9JWC2CEWmz-1">
          <mxGeometry x="670" y="245" width="120" height="60" as="geometry"/>
        </mxCell>
        <mxCell id="ZrL0aH-scqhHAdQ7SSmO-18" value="" style="rounded=1;whiteSpace=wrap;html=1;absoluteArcSize=1;arcSize=14;strokeWidth=1;fillColor=#66B2FF;" vertex="1" parent="Sq8qz6Rjfc9JWC2CEWmz-1">
          <mxGeometry x="110" y="125" width="160" height="220" as="geometry"/>
        </mxCell>
        <mxCell id="ZrL0aH-scqhHAdQ7SSmO-19" value="Sources" style="text;html=1;resizable=0;autosize=1;align=center;verticalAlign=middle;points=[];fillColor=none;strokeColor=none;rounded=0;fontStyle=1" vertex="1" parent="Sq8qz6Rjfc9JWC2CEWmz-1">
          <mxGeometry x="155" y="140" width="60" height="20" as="geometry"/>
        </mxCell>
        <mxCell id="ZrL0aH-scqhHAdQ7SSmO-20" value="System of Records - Sources" style="rounded=1;whiteSpace=wrap;html=1;absoluteArcSize=1;arcSize=14;strokeWidth=1;fillColor=#b1ddf0;strokeColor=#10739e;" vertex="1" parent="Sq8qz6Rjfc9JWC2CEWmz-1">
          <mxGeometry x="130" y="175" width="120" height="60" as="geometry"/>
        </mxCell>
        <mxCell id="ZrL0aH-scqhHAdQ7SSmO-21" value="&lt;div&gt;External data &lt;br&gt;&lt;/div&gt;&lt;div&gt;sources&lt;/div&gt;" style="rounded=1;whiteSpace=wrap;html=1;absoluteArcSize=1;arcSize=14;strokeWidth=1;fillColor=#b1ddf0;strokeColor=#10739e;" vertex="1" parent="Sq8qz6Rjfc9JWC2CEWmz-1">
          <mxGeometry x="130" y="245" width="120" height="60" as="geometry"/>
        </mxCell>
        <mxCell id="ZrL0aH-scqhHAdQ7SSmO-22" value="" style="verticalLabelPosition=bottom;verticalAlign=top;html=1;strokeWidth=2;shape=mxgraph.arrows2.arrow;dy=0.5;dx=25;notch=0;fillColor=#0050ef;strokeColor=#001DBC;fontColor=#ffffff;fontStyle=1" vertex="1" parent="Sq8qz6Rjfc9JWC2CEWmz-1">
          <mxGeometry x="270" y="215" width="60" height="30" as="geometry"/>
        </mxCell>
        <mxCell id="ZrL0aH-scqhHAdQ7SSmO-23" value="" style="verticalLabelPosition=bottom;verticalAlign=top;html=1;strokeWidth=2;shape=mxgraph.arrows2.arrow;dy=0.5;dx=25;notch=0;fillColor=#0050ef;strokeColor=#001DBC;fontColor=#ffffff;" vertex="1" parent="Sq8qz6Rjfc9JWC2CEWmz-1">
          <mxGeometry x="590" y="215" width="60" height="30" as="geometry"/>
        </mxCell>
        <mxCell id="ZrL0aH-scqhHAdQ7SSmO-25" value="Information Governance, Quality and Metadata Management" style="verticalLabelPosition=middle;verticalAlign=middle;html=1;shape=mxgraph.basic.rect;fillColor2=none;strokeWidth=1;size=20;indent=5;fillColor=#66B2FF;labelPosition=center;align=center;fontStyle=1;strokeColor=#4B84BD;" vertex="1" parent="Sq8qz6Rjfc9JWC2CEWmz-1">
          <mxGeometry x="130" y="405" width="660" height="30" as="geometry"/>
        </mxCell>
        <mxCell id="ZrL0aH-scqhHAdQ7SSmO-26" value="" style="verticalLabelPosition=bottom;verticalAlign=top;html=1;strokeWidth=1;shape=mxgraph.arrows2.arrow;dy=0.5;dx=25;notch=0;fillColor=#66B2FF;strokeColor=#508BC7;fontColor=#ffffff;fontStyle=1;rotation=90;" vertex="1" parent="Sq8qz6Rjfc9JWC2CEWmz-1">
          <mxGeometry x="172.5" y="360.63" width="51.25" height="30" as="geometry"/>
        </mxCell>
        <mxCell id="ZrL0aH-scqhHAdQ7SSmO-28" value="" style="verticalLabelPosition=bottom;verticalAlign=top;html=1;strokeWidth=1;shape=mxgraph.arrows2.arrow;dy=0.5;dx=25;notch=0;fillColor=#66B2FF;strokeColor=#508BC7;fontColor=#ffffff;fontStyle=1;rotation=90;" vertex="1" parent="Sq8qz6Rjfc9JWC2CEWmz-1">
          <mxGeometry x="350" y="360.63" width="51.25" height="30" as="geometry"/>
        </mxCell>
        <mxCell id="ZrL0aH-scqhHAdQ7SSmO-29" value="" style="verticalLabelPosition=bottom;verticalAlign=top;html=1;strokeWidth=1;shape=mxgraph.arrows2.arrow;dy=0.5;dx=25;notch=0;fillColor=#66B2FF;strokeColor=#508BC7;fontColor=#ffffff;fontStyle=1;rotation=90;" vertex="1" parent="Sq8qz6Rjfc9JWC2CEWmz-1">
          <mxGeometry x="524" y="360.63" width="51.25" height="30" as="geometry"/>
        </mxCell>
        <mxCell id="ZrL0aH-scqhHAdQ7SSmO-30" value="" style="verticalLabelPosition=bottom;verticalAlign=top;html=1;strokeWidth=1;shape=mxgraph.arrows2.arrow;dy=0.5;dx=25;notch=0;fillColor=#66B2FF;strokeColor=#508BC7;fontColor=#ffffff;fontStyle=1;rotation=90;" vertex="1" parent="Sq8qz6Rjfc9JWC2CEWmz-1">
          <mxGeometry x="720" y="360.63" width="51.25" height="30" as="geometry"/>
        </mxCell>
        <mxCell id="ZrL0aH-scqhHAdQ7SSmO-31" value="Data Integration Hub Architecture" style="text;html=1;resizable=0;autosize=1;align=center;verticalAlign=middle;points=[];fillColor=none;strokeColor=none;rounded=0;fontStyle=1;fontSize=24;" vertex="1" parent="Sq8qz6Rjfc9JWC2CEWmz-1">
          <mxGeometry x="265" y="40" width="400" height="30" as="geometry"/>
        </mxCell>
        <mxCell id="ZrL0aH-scqhHAdQ7SSmO-35" value="Master Information Hub" style="rounded=1;whiteSpace=wrap;html=1;absoluteArcSize=1;arcSize=14;strokeWidth=1;fillColor=#fad7ac;strokeColor=#b46504;fontStyle=1;fontSize=14;" vertex="1" parent="Sq8qz6Rjfc9JWC2CEWmz-1">
          <mxGeometry x="502" y="570" width="230" height="220" as="geometry"/>
        </mxCell>
        <mxCell id="ZrL0aH-scqhHAdQ7SSmO-37" value="Matching" style="rounded=1;whiteSpace=wrap;html=1;absoluteArcSize=1;arcSize=14;strokeWidth=1;fillColor=#cce5ff;strokeColor=#36393d;" vertex="1" parent="Sq8qz6Rjfc9JWC2CEWmz-1">
          <mxGeometry x="512" y="580" width="90" height="30" as="geometry"/>
        </mxCell>
        <mxCell id="ZrL0aH-scqhHAdQ7SSmO-38" value="Merging" style="rounded=1;whiteSpace=wrap;html=1;absoluteArcSize=1;arcSize=14;strokeWidth=1;fillColor=#cce5ff;strokeColor=#36393d;" vertex="1" parent="Sq8qz6Rjfc9JWC2CEWmz-1">
          <mxGeometry x="612" y="580" width="90" height="30" as="geometry"/>
        </mxCell>
        <mxCell id="ZrL0aH-scqhHAdQ7SSmO-41" value="" style="rounded=1;whiteSpace=wrap;html=1;absoluteArcSize=1;arcSize=14;strokeWidth=1;fillColor=#66B2FF;" vertex="1" parent="Sq8qz6Rjfc9JWC2CEWmz-1">
          <mxGeometry x="792" y="570" width="160" height="220" as="geometry"/>
        </mxCell>
        <mxCell id="ZrL0aH-scqhHAdQ7SSmO-42" value="&lt;div&gt;Analytics and &lt;br&gt;&lt;/div&gt;&lt;div&gt;Decision Support&lt;/div&gt;" style="text;html=1;resizable=0;autosize=1;align=center;verticalAlign=middle;points=[];fillColor=none;strokeColor=none;rounded=0;fontStyle=1" vertex="1" parent="Sq8qz6Rjfc9JWC2CEWmz-1">
          <mxGeometry x="812" y="580" width="110" height="30" as="geometry"/>
        </mxCell>
        <mxCell id="ZrL0aH-scqhHAdQ7SSmO-43" value="&lt;div&gt;Consuming applications&lt;/div&gt;&lt;div&gt;(EDW/ODS etc.)&lt;br&gt;&lt;/div&gt;" style="rounded=1;whiteSpace=wrap;html=1;absoluteArcSize=1;arcSize=14;strokeWidth=1;fillColor=#b1ddf0;strokeColor=#10739e;" vertex="1" parent="Sq8qz6Rjfc9JWC2CEWmz-1">
          <mxGeometry x="812" y="620" width="120" height="60" as="geometry"/>
        </mxCell>
        <mxCell id="ZrL0aH-scqhHAdQ7SSmO-44" value="&lt;div&gt;Data Analysis,&lt;/div&gt;&lt;div&gt;Reporting&lt;br&gt;&lt;/div&gt;" style="rounded=1;whiteSpace=wrap;html=1;absoluteArcSize=1;arcSize=14;strokeWidth=1;fillColor=#b1ddf0;strokeColor=#10739e;" vertex="1" parent="Sq8qz6Rjfc9JWC2CEWmz-1">
          <mxGeometry x="812" y="690" width="120" height="60" as="geometry"/>
        </mxCell>
        <mxCell id="ZrL0aH-scqhHAdQ7SSmO-45" value="" style="rounded=1;whiteSpace=wrap;html=1;absoluteArcSize=1;arcSize=14;strokeWidth=1;fillColor=#66B2FF;" vertex="1" parent="Sq8qz6Rjfc9JWC2CEWmz-1">
          <mxGeometry x="32.5" y="570" width="140" height="220" as="geometry"/>
        </mxCell>
        <mxCell id="ZrL0aH-scqhHAdQ7SSmO-46" value="Sources" style="text;html=1;resizable=0;autosize=1;align=center;verticalAlign=middle;points=[];fillColor=none;strokeColor=none;rounded=0;fontStyle=1" vertex="1" parent="Sq8qz6Rjfc9JWC2CEWmz-1">
          <mxGeometry x="67.5" y="585" width="60" height="20" as="geometry"/>
        </mxCell>
        <mxCell id="ZrL0aH-scqhHAdQ7SSmO-47" value="Internal sources" style="rounded=1;whiteSpace=wrap;html=1;absoluteArcSize=1;arcSize=14;strokeWidth=1;fillColor=#b1ddf0;strokeColor=#10739e;" vertex="1" parent="Sq8qz6Rjfc9JWC2CEWmz-1">
          <mxGeometry x="42.5" y="620" width="120" height="60" as="geometry"/>
        </mxCell>
        <mxCell id="ZrL0aH-scqhHAdQ7SSmO-48" value="&lt;div&gt;External data &lt;br&gt;&lt;/div&gt;&lt;div&gt;sources&lt;/div&gt;" style="rounded=1;whiteSpace=wrap;html=1;absoluteArcSize=1;arcSize=14;strokeWidth=1;fillColor=#b1ddf0;strokeColor=#10739e;" vertex="1" parent="Sq8qz6Rjfc9JWC2CEWmz-1">
          <mxGeometry x="42.5" y="690" width="120" height="60" as="geometry"/>
        </mxCell>
        <mxCell id="ZrL0aH-scqhHAdQ7SSmO-50" value="" style="verticalLabelPosition=bottom;verticalAlign=top;html=1;strokeWidth=2;shape=mxgraph.arrows2.arrow;dy=0.5;dx=25;notch=0;fillColor=#0050ef;strokeColor=#001DBC;fontColor=#ffffff;" vertex="1" parent="Sq8qz6Rjfc9JWC2CEWmz-1">
          <mxGeometry x="732" y="665" width="60" height="30" as="geometry"/>
        </mxCell>
        <mxCell id="ZrL0aH-scqhHAdQ7SSmO-57" value="Data Profiling" style="rounded=1;whiteSpace=wrap;html=1;absoluteArcSize=1;arcSize=14;strokeWidth=1;fillColor=#cce5ff;labelPosition=center;verticalLabelPosition=middle;align=center;verticalAlign=middle;strokeColor=#36393d;" vertex="1" parent="Sq8qz6Rjfc9JWC2CEWmz-1">
          <mxGeometry x="213" y="550" width="60" height="260" as="geometry"/>
        </mxCell>
        <mxCell id="ZrL0aH-scqhHAdQ7SSmO-61" value="" style="verticalLabelPosition=bottom;verticalAlign=top;html=1;strokeWidth=2;shape=mxgraph.arrows2.arrow;dy=0.5;dx=25;notch=0;fillColor=#0050ef;strokeColor=#001DBC;fontColor=#ffffff;fontStyle=1" vertex="1" parent="Sq8qz6Rjfc9JWC2CEWmz-1">
          <mxGeometry x="169.06" y="665" width="41.87" height="30" as="geometry"/>
        </mxCell>
        <mxCell id="ZrL0aH-scqhHAdQ7SSmO-62" value="Data Integration" style="rounded=1;whiteSpace=wrap;html=1;absoluteArcSize=1;arcSize=14;strokeWidth=1;fillColor=#cce5ff;labelPosition=center;verticalLabelPosition=top;align=center;verticalAlign=bottom;strokeColor=#36393d;fontStyle=1" vertex="1" parent="Sq8qz6Rjfc9JWC2CEWmz-1">
          <mxGeometry x="333" y="550" width="110" height="260" as="geometry"/>
        </mxCell>
        <mxCell id="ZrL0aH-scqhHAdQ7SSmO-63" value="Cleasing" style="rounded=1;whiteSpace=wrap;html=1;absoluteArcSize=1;arcSize=14;strokeWidth=1;fillColor=#FFB570;" vertex="1" parent="Sq8qz6Rjfc9JWC2CEWmz-1">
          <mxGeometry x="338" y="575" width="90" height="30" as="geometry"/>
        </mxCell>
        <mxCell id="ZrL0aH-scqhHAdQ7SSmO-49" value="" style="verticalLabelPosition=bottom;verticalAlign=top;html=1;strokeWidth=2;shape=mxgraph.arrows2.arrow;dy=0.5;dx=25;notch=0;fillColor=#0050ef;strokeColor=#001DBC;fontColor=#ffffff;fontStyle=1" vertex="1" parent="Sq8qz6Rjfc9JWC2CEWmz-1">
          <mxGeometry x="273" y="665" width="60" height="30" as="geometry"/>
        </mxCell>
        <mxCell id="ZrL0aH-scqhHAdQ7SSmO-64" value="Standardize" style="rounded=1;whiteSpace=wrap;html=1;absoluteArcSize=1;arcSize=14;strokeWidth=1;fillColor=#FFB570;" vertex="1" parent="Sq8qz6Rjfc9JWC2CEWmz-1">
          <mxGeometry x="338" y="620" width="90" height="30" as="geometry"/>
        </mxCell>
        <mxCell id="ZrL0aH-scqhHAdQ7SSmO-65" value="Transform" style="rounded=1;whiteSpace=wrap;html=1;absoluteArcSize=1;arcSize=14;strokeWidth=1;fillColor=#FFB570;" vertex="1" parent="Sq8qz6Rjfc9JWC2CEWmz-1">
          <mxGeometry x="338" y="660" width="90" height="30" as="geometry"/>
        </mxCell>
        <mxCell id="ZrL0aH-scqhHAdQ7SSmO-68" value="Security" style="rounded=1;whiteSpace=wrap;html=1;absoluteArcSize=1;arcSize=14;strokeWidth=1;fillColor=#cce5ff;strokeColor=#36393d;" vertex="1" parent="Sq8qz6Rjfc9JWC2CEWmz-1">
          <mxGeometry x="512" y="620" width="90" height="30" as="geometry"/>
        </mxCell>
        <mxCell id="ZrL0aH-scqhHAdQ7SSmO-69" value="Stewardship" style="rounded=1;whiteSpace=wrap;html=1;absoluteArcSize=1;arcSize=14;strokeWidth=1;fillColor=#cce5ff;strokeColor=#36393d;" vertex="1" parent="Sq8qz6Rjfc9JWC2CEWmz-1">
          <mxGeometry x="612" y="620" width="90" height="30" as="geometry"/>
        </mxCell>
        <mxCell id="ZrL0aH-scqhHAdQ7SSmO-70" value="Collaboration" style="rounded=1;whiteSpace=wrap;html=1;absoluteArcSize=1;arcSize=14;strokeWidth=1;fillColor=#cce5ff;strokeColor=#36393d;" vertex="1" parent="Sq8qz6Rjfc9JWC2CEWmz-1">
          <mxGeometry x="512" y="700" width="90" height="30" as="geometry"/>
        </mxCell>
        <mxCell id="ZrL0aH-scqhHAdQ7SSmO-71" value="Services" style="rounded=1;whiteSpace=wrap;html=1;absoluteArcSize=1;arcSize=14;strokeWidth=1;fillColor=#cce5ff;strokeColor=#36393d;" vertex="1" parent="Sq8qz6Rjfc9JWC2CEWmz-1">
          <mxGeometry x="612" y="700" width="90" height="30" as="geometry"/>
        </mxCell>
        <mxCell id="ZrL0aH-scqhHAdQ7SSmO-72" value="Metadata" style="rounded=1;whiteSpace=wrap;html=1;absoluteArcSize=1;arcSize=14;strokeWidth=1;fillColor=#cce5ff;strokeColor=#36393d;" vertex="1" parent="Sq8qz6Rjfc9JWC2CEWmz-1">
          <mxGeometry x="512" y="740" width="90" height="30" as="geometry"/>
        </mxCell>
        <mxCell id="ZrL0aH-scqhHAdQ7SSmO-73" value="Audit" style="rounded=1;whiteSpace=wrap;html=1;absoluteArcSize=1;arcSize=14;strokeWidth=1;fillColor=#cce5ff;strokeColor=#36393d;" vertex="1" parent="Sq8qz6Rjfc9JWC2CEWmz-1">
          <mxGeometry x="612" y="740" width="90" height="30" as="geometry"/>
        </mxCell>
        <mxCell id="ZrL0aH-scqhHAdQ7SSmO-74" value="" style="verticalLabelPosition=bottom;verticalAlign=top;html=1;strokeWidth=2;shape=mxgraph.arrows2.arrow;dy=0.5;dx=25;notch=0;fillColor=#0050ef;strokeColor=#001DBC;fontColor=#ffffff;fontStyle=1" vertex="1" parent="Sq8qz6Rjfc9JWC2CEWmz-1">
          <mxGeometry x="441" y="665" width="60" height="30" as="geometry"/>
        </mxCell>
        <mxCell id="ZrL0aH-scqhHAdQ7SSmO-75" value="Information quality in the master information management" style="text;html=1;resizable=0;autosize=1;align=center;verticalAlign=middle;points=[];fillColor=none;strokeColor=none;rounded=0;fontStyle=1;fontSize=24;" vertex="1" parent="Sq8qz6Rjfc9JWC2CEWmz-1">
          <mxGeometry x="115" y="480" width="680" height="30" as="geometry"/>
        </mxCell>
      </root>
    </mxGraphModel>
  </diagram>
  <diagram id="61-o861B53J_IJEiF1TD" name="Hadoop Ecosystem">
    <mxGraphModel dx="946" dy="574" grid="1" gridSize="10" guides="1" tooltips="1" connect="1" arrows="1" fold="1" page="1" pageScale="1" pageWidth="1100" pageHeight="850" math="0" shadow="0">
      <root>
        <mxCell id="do4Zr47tkMPMi06IhZcK-0"/>
        <mxCell id="do4Zr47tkMPMi06IhZcK-1" parent="do4Zr47tkMPMi06IhZcK-0"/>
        <mxCell id="do4Zr47tkMPMi06IhZcK-17" value="" style="verticalLabelPosition=bottom;verticalAlign=top;html=1;shape=mxgraph.basic.rect;fillColor2=none;strokeWidth=1;size=20;indent=5;fillColor=#B59B48;fontSize=14;fontColor=#508BC7;" parent="do4Zr47tkMPMi06IhZcK-1" vertex="1">
          <mxGeometry x="40" y="80" width="120" height="400" as="geometry"/>
        </mxCell>
        <mxCell id="do4Zr47tkMPMi06IhZcK-2" value="" style="endArrow=classic;html=1;fontSize=14;" parent="do4Zr47tkMPMi06IhZcK-1" edge="1">
          <mxGeometry width="50" height="50" relative="1" as="geometry">
            <mxPoint x="40" y="80" as="sourcePoint"/>
            <mxPoint x="800" y="80" as="targetPoint"/>
          </mxGeometry>
        </mxCell>
        <mxCell id="do4Zr47tkMPMi06IhZcK-3" value="" style="endArrow=classic;html=1;fontSize=14;" parent="do4Zr47tkMPMi06IhZcK-1" edge="1">
          <mxGeometry width="50" height="50" relative="1" as="geometry">
            <mxPoint x="40" y="160" as="sourcePoint"/>
            <mxPoint x="800" y="160" as="targetPoint"/>
          </mxGeometry>
        </mxCell>
        <mxCell id="do4Zr47tkMPMi06IhZcK-4" value="" style="endArrow=classic;html=1;fontSize=14;" parent="do4Zr47tkMPMi06IhZcK-1" edge="1">
          <mxGeometry width="50" height="50" relative="1" as="geometry">
            <mxPoint x="40" y="240" as="sourcePoint"/>
            <mxPoint x="800" y="240" as="targetPoint"/>
          </mxGeometry>
        </mxCell>
        <mxCell id="do4Zr47tkMPMi06IhZcK-5" value="" style="endArrow=classic;html=1;fontSize=14;" parent="do4Zr47tkMPMi06IhZcK-1" edge="1">
          <mxGeometry width="50" height="50" relative="1" as="geometry">
            <mxPoint x="40" y="320" as="sourcePoint"/>
            <mxPoint x="800" y="320" as="targetPoint"/>
          </mxGeometry>
        </mxCell>
        <mxCell id="do4Zr47tkMPMi06IhZcK-6" value="" style="endArrow=classic;html=1;fontSize=14;" parent="do4Zr47tkMPMi06IhZcK-1" edge="1">
          <mxGeometry width="50" height="50" relative="1" as="geometry">
            <mxPoint x="40" y="400" as="sourcePoint"/>
            <mxPoint x="800" y="400" as="targetPoint"/>
          </mxGeometry>
        </mxCell>
        <mxCell id="do4Zr47tkMPMi06IhZcK-7" value="" style="endArrow=classic;html=1;fontSize=14;" parent="do4Zr47tkMPMi06IhZcK-1" edge="1">
          <mxGeometry width="50" height="50" relative="1" as="geometry">
            <mxPoint x="40" y="480" as="sourcePoint"/>
            <mxPoint x="800" y="480" as="targetPoint"/>
          </mxGeometry>
        </mxCell>
        <mxCell id="do4Zr47tkMPMi06IhZcK-8" value="" style="endArrow=none;html=1;fontSize=14;fontStyle=1;fontColor=#508BC7;" parent="do4Zr47tkMPMi06IhZcK-1" edge="1">
          <mxGeometry width="50" height="50" relative="1" as="geometry">
            <mxPoint x="40" y="480" as="sourcePoint"/>
            <mxPoint x="40" y="80" as="targetPoint"/>
          </mxGeometry>
        </mxCell>
        <mxCell id="do4Zr47tkMPMi06IhZcK-9" value="" style="endArrow=none;html=1;fontSize=14;" parent="do4Zr47tkMPMi06IhZcK-1" edge="1">
          <mxGeometry width="50" height="50" relative="1" as="geometry">
            <mxPoint x="160" y="480" as="sourcePoint"/>
            <mxPoint x="160" y="80" as="targetPoint"/>
          </mxGeometry>
        </mxCell>
        <mxCell id="do4Zr47tkMPMi06IhZcK-11" value="Applications Layer" style="text;html=1;align=center;verticalAlign=middle;whiteSpace=wrap;rounded=0;fontSize=14;fontStyle=1;fontColor=#FFFFFF;" parent="do4Zr47tkMPMi06IhZcK-1" vertex="1">
          <mxGeometry x="80" y="110" width="40" height="20" as="geometry"/>
        </mxCell>
        <mxCell id="do4Zr47tkMPMi06IhZcK-12" value="Management Layer" style="text;html=1;align=center;verticalAlign=middle;whiteSpace=wrap;rounded=0;fontSize=14;fontStyle=1;fontColor=#FFFFFF;" parent="do4Zr47tkMPMi06IhZcK-1" vertex="1">
          <mxGeometry x="80" y="190" width="40" height="20" as="geometry"/>
        </mxCell>
        <mxCell id="do4Zr47tkMPMi06IhZcK-13" value="Data Access Layer" style="text;html=1;align=center;verticalAlign=middle;whiteSpace=wrap;rounded=0;fontSize=14;fontStyle=1;fontColor=#FFFFFF;" parent="do4Zr47tkMPMi06IhZcK-1" vertex="1">
          <mxGeometry x="60" y="270" width="90" height="20" as="geometry"/>
        </mxCell>
        <mxCell id="do4Zr47tkMPMi06IhZcK-14" value="Data Processing Layer" style="text;html=1;align=center;verticalAlign=middle;whiteSpace=wrap;rounded=0;fontSize=14;fontStyle=1;fontColor=#FFFFFF;" parent="do4Zr47tkMPMi06IhZcK-1" vertex="1">
          <mxGeometry x="55" y="350" width="90" height="20" as="geometry"/>
        </mxCell>
        <mxCell id="do4Zr47tkMPMi06IhZcK-15" value="Data Storage Layer" style="text;html=1;align=center;verticalAlign=middle;whiteSpace=wrap;rounded=0;fontSize=14;fontStyle=1;fontColor=#FFFFFF;" parent="do4Zr47tkMPMi06IhZcK-1" vertex="1">
          <mxGeometry x="55" y="430" width="90" height="20" as="geometry"/>
        </mxCell>
        <mxCell id="do4Zr47tkMPMi06IhZcK-18" value="File Systems (HDFS, MapR-FS, etc.)" style="shape=ext;rounded=1;html=1;whiteSpace=wrap;strokeColor=#6A7078;strokeWidth=1;fillColor=#cce5ff;fontSize=14;" parent="do4Zr47tkMPMi06IhZcK-1" vertex="1">
          <mxGeometry x="180" y="415" width="180" height="50" as="geometry"/>
        </mxCell>
        <mxCell id="do4Zr47tkMPMi06IhZcK-19" value="Casandra" style="shape=ext;rounded=1;html=1;whiteSpace=wrap;strokeColor=#666B73;strokeWidth=1;fillColor=#cce5ff;fontSize=14;" parent="do4Zr47tkMPMi06IhZcK-1" vertex="1">
          <mxGeometry x="380" y="415" width="180" height="50" as="geometry"/>
        </mxCell>
        <mxCell id="do4Zr47tkMPMi06IhZcK-21" value="CouchBase" style="shape=ext;rounded=1;html=1;whiteSpace=wrap;strokeColor=#666B73;strokeWidth=1;fillColor=#cce5ff;fontSize=14;" parent="do4Zr47tkMPMi06IhZcK-1" vertex="1">
          <mxGeometry x="580" y="415" width="180" height="50" as="geometry"/>
        </mxCell>
        <mxCell id="NhQuGvZctJQaqBM5S-f--0" value="Flink Stream" style="shape=ext;rounded=1;html=1;whiteSpace=wrap;strokeColor=#6A7078;strokeWidth=1;fillColor=#cce5ff;fontSize=14;" vertex="1" parent="do4Zr47tkMPMi06IhZcK-1">
          <mxGeometry x="180" y="335" width="180" height="50" as="geometry"/>
        </mxCell>
        <mxCell id="NhQuGvZctJQaqBM5S-f--1" value="Flink Batch" style="shape=ext;rounded=1;html=1;whiteSpace=wrap;strokeColor=#666B73;strokeWidth=1;fillColor=#cce5ff;fontSize=14;" vertex="1" parent="do4Zr47tkMPMi06IhZcK-1">
          <mxGeometry x="380" y="335" width="180" height="50" as="geometry"/>
        </mxCell>
        <mxCell id="NhQuGvZctJQaqBM5S-f--2" value="&lt;div&gt;Machine Learning&lt;/div&gt;&lt;div&gt;(RAPIDS, Tensorflow, Pytorch, OpenCV...)&lt;br&gt;&lt;/div&gt;" style="shape=ext;rounded=1;html=1;whiteSpace=wrap;strokeColor=#666B73;strokeWidth=1;fillColor=#cce5ff;fontSize=14;" vertex="1" parent="do4Zr47tkMPMi06IhZcK-1">
          <mxGeometry x="580" y="335" width="180" height="50" as="geometry"/>
        </mxCell>
        <mxCell id="NhQuGvZctJQaqBM5S-f--3" value="File Systems (HDFS, MapR-FS, etc.)" style="shape=ext;rounded=1;html=1;whiteSpace=wrap;strokeColor=#6A7078;strokeWidth=1;fillColor=#cce5ff;fontSize=14;" vertex="1" parent="do4Zr47tkMPMi06IhZcK-1">
          <mxGeometry x="180" y="255" width="180" height="50" as="geometry"/>
        </mxCell>
        <mxCell id="NhQuGvZctJQaqBM5S-f--4" value="Cloud Storage" style="shape=ext;rounded=1;html=1;whiteSpace=wrap;strokeColor=#666B73;strokeWidth=1;fillColor=#cce5ff;fontSize=14;" vertex="1" parent="do4Zr47tkMPMi06IhZcK-1">
          <mxGeometry x="380" y="255" width="180" height="50" as="geometry"/>
        </mxCell>
        <mxCell id="NhQuGvZctJQaqBM5S-f--5" value="Others (Distributed Object Stores)" style="shape=ext;rounded=1;html=1;whiteSpace=wrap;strokeColor=#666B73;strokeWidth=1;fillColor=#cce5ff;fontSize=14;" vertex="1" parent="do4Zr47tkMPMi06IhZcK-1">
          <mxGeometry x="580" y="255" width="180" height="50" as="geometry"/>
        </mxCell>
        <mxCell id="NhQuGvZctJQaqBM5S-f--6" value="File Systems (HDFS, MapR-FS, etc.)" style="shape=ext;rounded=1;html=1;whiteSpace=wrap;strokeColor=#6A7078;strokeWidth=1;fillColor=#cce5ff;fontSize=14;" vertex="1" parent="do4Zr47tkMPMi06IhZcK-1">
          <mxGeometry x="180" y="175" width="180" height="50" as="geometry"/>
        </mxCell>
        <mxCell id="NhQuGvZctJQaqBM5S-f--7" value="Cloud Storage" style="shape=ext;rounded=1;html=1;whiteSpace=wrap;strokeColor=#666B73;strokeWidth=1;fillColor=#cce5ff;fontSize=14;" vertex="1" parent="do4Zr47tkMPMi06IhZcK-1">
          <mxGeometry x="380" y="175" width="180" height="50" as="geometry"/>
        </mxCell>
        <mxCell id="NhQuGvZctJQaqBM5S-f--8" value="Others (Distributed Object Stores)" style="shape=ext;rounded=1;html=1;whiteSpace=wrap;strokeColor=#666B73;strokeWidth=1;fillColor=#cce5ff;fontSize=14;" vertex="1" parent="do4Zr47tkMPMi06IhZcK-1">
          <mxGeometry x="580" y="175" width="180" height="50" as="geometry"/>
        </mxCell>
        <mxCell id="NhQuGvZctJQaqBM5S-f--9" value="File Systems (HDFS, MapR-FS, etc.)" style="shape=ext;rounded=1;html=1;whiteSpace=wrap;strokeColor=#6A7078;strokeWidth=1;fillColor=#cce5ff;fontSize=14;" vertex="1" parent="do4Zr47tkMPMi06IhZcK-1">
          <mxGeometry x="180" y="95" width="180" height="50" as="geometry"/>
        </mxCell>
        <mxCell id="NhQuGvZctJQaqBM5S-f--10" value="Cloud Storage" style="shape=ext;rounded=1;html=1;whiteSpace=wrap;strokeColor=#666B73;strokeWidth=1;fillColor=#cce5ff;fontSize=14;" vertex="1" parent="do4Zr47tkMPMi06IhZcK-1">
          <mxGeometry x="380" y="95" width="180" height="50" as="geometry"/>
        </mxCell>
        <mxCell id="NhQuGvZctJQaqBM5S-f--11" value="Others (Distributed Object Stores)" style="shape=ext;rounded=1;html=1;whiteSpace=wrap;strokeColor=#666B73;strokeWidth=1;fillColor=#cce5ff;fontSize=14;" vertex="1" parent="do4Zr47tkMPMi06IhZcK-1">
          <mxGeometry x="580" y="95" width="180" height="50" as="geometry"/>
        </mxCell>
      </root>
    </mxGraphModel>
  </diagram>
</mxfile>
